<?xml version="1.0" standalone="no"?>
<!DOCTYPE svg PUBLIC "-//W3C//DTD SVG 20010904//EN"
 "http://www.w3.org/TR/2001/REC-SVG-20010904/DTD/svg10.dtd">
<svg version="1.0" xmlns="http://www.w3.org/2000/svg"
 width="512.000000pt" height="512.000000pt" viewBox="0 0 512.000000 512.000000"
 preserveAspectRatio="xMidYMid meet">

<g transform="translate(0.000000,512.000000) scale(0.100000,-0.100000)"
fill="#000000" stroke="none">
<path d="M2958 5105 c-265 -45 -506 -191 -669 -408 -153 -202 -217 -416 -206
-685 6 -158 31 -261 98 -401 118 -249 342 -451 599 -540 l55 -19 3 -171 2
-171 -119 0 c-68 0 -131 -5 -145 -11 -30 -14 -50 -59 -41 -91 8 -27 518 -543
557 -564 15 -8 37 -14 50 -14 27 0 575 542 585 578 8 32 -14 77 -43 91 -14 6
-77 11 -144 11 l-120 0 0 170 c0 154 2 171 18 176 80 26 184 74 253 117 79 48
225 182 294 269 l30 38 60 -15 c71 -17 193 -19 267 -4 71 15 202 79 261 128
236 197 295 532 139 790 -74 123 -189 216 -330 269 -89 33 -238 41 -332 18
l-65 -16 -30 38 c-62 77 -162 175 -225 222 -229 169 -526 242 -802 195z m394
-174 c187 -49 372 -170 483 -315 l27 -35 -79 -78 c-126 -125 -183 -262 -183
-438 0 -176 57 -313 183 -438 l79 -78 -28 -37 c-108 -142 -295 -265 -479 -312
-299 -78 -616 5 -838 219 -118 113 -205 254 -248 403 -30 105 -37 306 -15 419
36 176 113 316 251 454 140 140 279 215 462 250 103 19 282 13 385 -14z m1052
-454 c289 -137 355 -509 130 -734 -143 -143 -365 -174 -546 -76 -69 37 -153
130 -191 210 -30 65 -32 74 -32 188 0 114 2 123 32 187 55 116 160 209 281
249 44 15 78 18 154 16 86 -3 104 -8 172 -40z m-1142 -1670 l3 -209 28 -24
c24 -20 39 -24 95 -24 l67 0 -163 -162 -162 -163 -162 163 -163 162 70 0 c120
1 125 11 125 267 l0 198 129 0 130 0 3 -208z"/>
<path d="M3071 4774 c-17 -22 -21 -41 -21 -103 l0 -76 -51 -23 c-186 -86 -236
-328 -100 -484 51 -57 115 -88 215 -103 44 -6 90 -17 101 -24 61 -39 83 -138
46 -199 -36 -57 -75 -73 -162 -70 -74 3 -78 4 -122 46 -34 30 -55 42 -77 42
-41 0 -80 -39 -80 -79 0 -56 89 -133 188 -162 l42 -12 0 -72 c0 -92 21 -125
80 -125 60 0 80 32 80 130 l0 77 43 17 c61 23 117 74 152 137 27 49 30 63 30
144 0 78 -4 97 -27 141 -54 102 -141 155 -281 169 -95 10 -154 77 -144 163 9
85 70 132 169 132 71 0 97 -10 142 -54 41 -42 80 -47 120 -15 74 58 -12 175
-161 219 l-43 13 0 72 c0 92 -21 125 -80 125 -30 0 -43 -6 -59 -26z"/>
<path d="M4289 4163 l-139 -137 -68 67 c-38 36 -81 69 -95 73 -50 12 -107 -47
-94 -98 4 -13 55 -72 115 -131 87 -85 115 -107 137 -107 24 0 60 31 207 177
167 166 178 180 178 214 0 29 -6 43 -26 58 -51 40 -67 32 -215 -116z"/>
<path d="M1963 2146 c-162 -31 -195 -46 -652 -295 -173 -94 -317 -168 -320
-165 -3 3 -24 35 -46 72 -49 82 -91 112 -154 112 -41 0 -71 -14 -246 -114
-122 -70 -209 -127 -224 -145 -31 -41 -38 -107 -16 -152 10 -19 196 -344 414
-723 273 -474 405 -694 425 -709 16 -11 49 -22 75 -24 41 -4 57 2 156 57 252
141 312 181 334 220 31 56 27 97 -19 184 -22 41 -40 78 -40 80 0 10 76 44 148
66 61 19 90 21 175 18 92 -4 123 -11 323 -76 273 -87 317 -96 447 -90 184 10
65 -49 1637 806 151 82 295 168 320 190 25 22 59 66 75 98 27 54 30 68 30 159
0 90 -3 105 -28 153 -37 70 -97 128 -166 161 -48 22 -69 26 -151 26 l-95 0
-140 -73 -139 -74 -18 24 c-59 76 -82 97 -138 127 -68 36 -150 49 -232 37 -29
-4 -120 -47 -257 -121 -117 -63 -219 -115 -227 -115 -7 0 -194 58 -416 130
-222 71 -432 136 -468 145 -93 22 -279 28 -367 11z m348 -171 c125 -32 1023
-326 1054 -345 47 -29 75 -87 75 -154 0 -63 -14 -98 -57 -137 -69 -64 -123
-66 -294 -11 -517 168 -691 222 -712 222 -34 0 -66 -29 -73 -66 -13 -65 1 -72
461 -220 458 -147 497 -155 602 -120 123 42 233 178 233 290 0 31 4 34 398
245 371 201 401 215 457 218 71 5 113 -14 159 -71 26 -31 31 -48 34 -104 3
-59 0 -72 -24 -108 -15 -23 -50 -55 -78 -72 -65 -39 -1500 -819 -1583 -861
-85 -42 -162 -61 -253 -61 -94 1 -121 7 -350 80 -245 78 -297 90 -410 90 -115
0 -200 -19 -303 -67 -47 -22 -81 -33 -86 -27 -5 5 -59 95 -119 199 -60 105
-168 292 -240 417 l-131 227 322 175 c402 218 454 243 564 267 104 22 252 20
354 -6z m1535 -51 c40 -19 99 -83 87 -94 -4 -5 -87 -51 -183 -103 -174 -95
-175 -95 -189 -74 -8 12 -41 48 -73 79 l-58 56 93 50 c50 28 114 62 141 76 58
31 130 35 182 10z m-2666 -892 c210 -365 379 -669 377 -675 -3 -7 -76 -52
-162 -101 -132 -76 -158 -87 -169 -75 -11 12 -761 1312 -768 1331 -4 11 325
199 333 190 4 -4 178 -306 389 -670z"/>
</g>
</svg>
