<?xml version="1.0" encoding="UTF-8"?>
<svg version="1.1" xmlns="http://www.w3.org/2000/svg" width="512" height="512">
<path d="M0 0 C1.67426681 1.42864084 3.34160303 2.86546735 5 4.3125 C5.72703125 4.91835937 6.4540625 5.52421875 7.203125 6.1484375 C31.68052833 26.79540748 47.19004246 59.37925562 50.81689453 90.94360352 C53.67474485 127.9165657 45.68039699 165.060283 21.51269531 194.09960938 C18.56175316 197.48015467 15.48970995 200.73218039 12.34716797 203.93457031 C11.16334968 205.14542033 10.00346358 206.37957167 8.84765625 207.6171875 C3.02245662 213.74019897 -3.5890688 219.91570512 -11.75 222.5 C-15.82757747 222.26475515 -18.46173865 221.35380462 -22 219.3125 C-25.05256218 215.86605883 -25.3449518 212.79648491 -25.3984375 208.375 C-24.34536383 202.92379512 -20.69931398 199.97244723 -16.5 196.6875 C-12.74756738 193.77241652 -12.74756738 193.77241652 -9.28125 190.5390625 C-8 189.3125 -8 189.3125 -6 189.3125 C-5.75507813 188.74402344 -5.51015625 188.17554688 -5.2578125 187.58984375 C-3.78188724 184.91759397 -1.99789135 183.06816127 0.125 180.875 C19.31660787 159.83804522 27.85086491 130.36783658 27 102.3125 C25.09557683 76.89769788 16.27701469 53.9758167 0 34.3125 C-0.69609375 33.45269531 -1.3921875 32.59289062 -2.109375 31.70703125 C-19.4405424 11.30812072 -46.60938818 -1.80357747 -73 -4.6875 C-107.998398 -6.5322226 -137.52508643 1.9672088 -164 25.3125 C-165.02480469 26.19421875 -165.02480469 26.19421875 -166.0703125 27.09375 C-186.71469883 46.15010661 -197.68095212 75.92389722 -199.28515625 103.41015625 C-199.93131461 131.47590403 -190.72024976 157.66124163 -173 179.3125 C-172.34902344 180.12847656 -171.69804687 180.94445312 -171.02734375 181.78515625 C-166.34541389 187.33310782 -161.06426039 191.83272695 -155.4375 196.375 C-143.80339168 205.77525901 -133.71632587 215.70659818 -132 231.3125 C-131.95317743 234.08541801 -131.93492304 236.84515764 -131.95703125 239.6171875 C-131.96013306 240.35831787 -131.96323486 241.09944824 -131.96643066 241.86303711 C-131.97448125 243.67954136 -131.98681011 245.49602579 -132 247.3125 C-131.45353663 247.30881283 -130.90707327 247.30512566 -130.34405041 247.30132675 C-117.00462012 247.21272137 -103.66524188 247.1469233 -90.32557964 247.10525131 C-83.87441187 247.0844183 -77.42345724 247.05617857 -70.97241211 247.01074219 C-64.7413557 246.96713222 -58.51050372 246.94333068 -52.27930641 246.93299103 C-49.90756833 246.92562688 -47.53584084 246.91124664 -45.16419029 246.88957977 C-41.83016563 246.86034511 -38.49697497 246.85655246 -35.1628418 246.85839844 C-34.19251007 246.84401733 -33.22217834 246.82963623 -32.22244263 246.81481934 C-22.73434246 246.87129151 -13.71875748 249.40572725 -6.79296875 256.16015625 C-0.2437997 264.02201277 2.23925044 272.27886039 1.578125 282.40234375 C0.2534803 291.3615961 -3.86939593 298.39982677 -10.984375 303.98046875 C-18.40720722 308.88586756 -25.75711068 309.4599997 -34.40844727 309.47021484 C-35.34884857 309.47529556 -36.28924988 309.48037628 -37.25814819 309.48561096 C-39.29555398 309.49629236 -41.33297134 309.50492124 -43.37039375 309.51173019 C-46.59382859 309.52353795 -49.8171306 309.5429935 -53.04051208 309.56484985 C-62.20363976 309.62641912 -71.36675164 309.68058769 -80.5300293 309.71386719 C-86.13799129 309.73478166 -91.7457073 309.77005248 -97.35352898 309.81462479 C-99.49095712 309.82880348 -101.62842874 309.83751142 -103.76590157 309.84067917 C-106.75118002 309.84557382 -109.73580171 309.86869244 -112.72094727 309.89599609 C-113.60573257 309.89298996 -114.49051788 309.88998383 -115.40211487 309.8868866 C-118.96423634 309.93540372 -121.36617765 309.98064391 -124.5565033 311.65103149 C-126.28497958 313.32889009 -126.28497958 313.32889009 -126.375 316.3125 C-126.2049729 319.48952205 -126.2049729 319.48952205 -124 322.3125 C-120.44862665 323.49629112 -117.59125218 323.45892611 -113.84155273 323.48608398 C-113.11590622 323.492771 -112.3902597 323.49945801 -111.6426239 323.50634766 C-110.06629041 323.52039421 -108.48993663 323.53228953 -106.91357231 323.54229546 C-104.41114405 323.55874129 -101.90886382 323.58198499 -99.4065094 323.60719299 C-92.2911828 323.67783831 -85.17579314 323.73781669 -78.06030273 323.78930664 C-73.70603073 323.82129338 -69.35192528 323.86262562 -64.99778938 323.90950203 C-63.34538872 323.92541491 -61.6929497 323.93778526 -60.04049492 323.94640923 C-33.81952446 324.0851337 -33.81952446 324.0851337 -23.98828125 333.171875 C-17.36830599 340.33310609 -14.60103017 348.03815285 -14.71484375 357.77734375 C-15.60047352 365.65095638 -19.08285972 374.07451364 -25.23046875 379.15625 C-32.4763037 384.50567126 -38.58961959 386.55040934 -47.67602539 386.60302734 C-48.40868118 386.60974457 -49.14133698 386.61646179 -49.89619446 386.62338257 C-52.2967523 386.6422445 -54.69702911 386.64627996 -57.09765625 386.6484375 C-58.77721773 386.65487097 -60.45677811 386.66159973 -62.13633728 386.66860962 C-65.64731445 386.68055086 -69.15819342 386.68429343 -72.66918945 386.68310547 C-77.16051543 386.68290184 -81.65121178 386.71026297 -86.14238834 386.74464989 C-89.60744607 386.7669145 -93.07235175 386.77094324 -96.53747368 386.76988602 C-98.19323342 386.77224036 -99.84899746 386.78105454 -101.50468636 386.79655075 C-103.82136126 386.81621365 -106.13667084 386.81037398 -108.45336914 386.79833984 C-109.76906387 386.80118988 -111.08475861 386.80403992 -112.44032288 386.80697632 C-116.60058609 386.22907232 -118.75397463 384.92880572 -122 382.3125 C-124.32081268 378.67992363 -124.2551992 375.38735032 -123.62109375 371.24609375 C-122.60714991 368.08947614 -120.49909606 366.37425425 -118 364.3125 C-117.67 363.9825 -117.34 363.6525 -117 363.3125 C-114.78234416 363.19893152 -112.5610753 363.15561535 -110.34057617 363.13891602 C-109.64459824 363.132229 -108.9486203 363.12554199 -108.23155212 363.11865234 C-106.71519431 363.1045703 -105.1988149 363.09268638 -103.68242455 363.08270454 C-101.28261396 363.06633562 -98.88296269 363.04309848 -96.48323059 363.01780701 C-89.65841578 362.94692653 -82.83353467 362.88695211 -76.00854492 362.83569336 C-71.83814606 362.80388879 -67.66792765 362.76260515 -63.49767494 362.71549797 C-61.9073035 362.69948146 -60.31689043 362.68715826 -58.72646141 362.67859077 C-56.49999071 362.66642735 -54.27394329 362.64227237 -52.04760742 362.61547852 C-50.78043381 362.60517105 -49.51326019 362.59486359 -48.20768738 362.58424377 C-45.1895364 362.32855684 -43.478757 362.00277251 -41 360.3125 C-39.58558126 357.48366253 -39.68099668 355.43873255 -40 352.3125 C-42.43067173 349.66226662 -43.96327281 349.31672189 -47.56472778 348.90272522 C-49.01441714 348.87082284 -50.46451391 348.85497772 -51.91455078 348.85180664 C-53.10565208 348.83152657 -53.10565208 348.83152657 -54.32081604 348.81083679 C-56.04329656 348.78322991 -57.76589355 348.76226814 -59.48852921 348.74717903 C-62.22240564 348.72241079 -64.95538963 348.67864725 -67.68893433 348.62974548 C-74.48263914 348.51165667 -81.27663343 348.42148498 -88.07086182 348.3394165 C-93.80626839 348.27007364 -99.54102537 348.18564347 -105.27587509 348.07955742 C-107.9556234 348.03600446 -110.63496627 348.01457446 -113.31497192 347.9936676 C-124.4370236 347.83388637 -133.95341529 346.96862629 -142.46875 339.015625 C-149.15293321 331.58117633 -151.55610363 323.68104873 -151.375 313.765625 C-150.49312863 305.64505943 -147.15461766 298.25256795 -141.0234375 292.77734375 C-132.27109408 286.4411878 -124.10940666 285.16424781 -113.56982422 285.1706543 C-112.17363358 285.16544266 -112.17363358 285.16544266 -110.74923706 285.16012573 C-108.73585477 285.15279556 -106.72246453 285.14743565 -104.70907211 285.14383507 C-101.52335858 285.13664807 -98.33779714 285.12096739 -95.15213013 285.10249329 C-86.09737142 285.05010931 -77.0427002 285.00199964 -67.98779297 284.98657227 C-62.44346454 284.97650787 -56.89952533 284.94723145 -51.35535049 284.90525246 C-49.24304264 284.89292467 -47.1306799 284.88782443 -45.01833725 284.89005089 C-42.06892818 284.89239614 -39.12064404 284.8702996 -36.17138672 284.8425293 C-35.29752319 284.84913071 -34.42365967 284.85573212 -33.52331543 284.86253357 C-28.64423399 284.79649071 -28.64423399 284.79649071 -24.45413208 282.43952942 C-22.6431311 279.79049058 -22.43523245 278.45906204 -23 275.3125 C-24.87860833 272.8076889 -25.96101874 272.32549375 -29 271.3125 C-30.50478551 271.22027978 -32.01331293 271.18355159 -33.5209198 271.18119812 C-34.44745361 271.17718994 -35.37398743 271.17318176 -36.32859802 271.16905212 C-37.34317581 271.16958084 -38.3577536 271.17010956 -39.40307617 271.1706543 C-40.47331024 271.16717987 -41.54354431 271.16370544 -42.64620972 271.16012573 C-44.97393968 271.15276638 -47.30167668 271.14742196 -49.62941551 271.14383507 C-53.31585262 271.1366743 -57.00215626 271.12100984 -60.68855286 271.10249329 C-71.17133743 271.05001001 -81.6540498 271.00205663 -92.13696289 270.98657227 C-98.5466624 270.97648304 -104.95602753 270.94713217 -111.36559486 270.90525246 C-113.80674013 270.89294926 -116.24793264 270.88781994 -118.68910789 270.89005089 C-122.10975095 270.89240737 -125.5294375 270.87020857 -128.94995117 270.8425293 C-129.95440781 270.84913071 -130.95886444 270.85573212 -131.99375916 270.86253357 C-139.15444382 270.76762203 -144.8522154 269.42444645 -150.05859375 264.27734375 C-150.51363281 263.60832031 -150.96867187 262.93929688 -151.4375 262.25 C-151.91058594 261.57839844 -152.38367188 260.90679687 -152.87109375 260.21484375 C-155.77676717 255.31843214 -155.33009457 249.78691115 -155.51757812 244.26757812 C-155.8959502 235.70780227 -157.12877649 227.00943203 -163.59667969 220.77294922 C-165.48343788 219.20678652 -167.41490798 217.72322743 -169.375 216.25 C-199.10000437 192.91794477 -215.58041114 163.02543519 -222.62109375 126.05078125 C-226.35755416 89.18693992 -217.99253445 51.53542519 -194.375 22.375 C-192.92579404 20.67965507 -191.46811128 18.99150019 -190 17.3125 C-189.39285156 16.58417969 -188.78570312 15.85585937 -188.16015625 15.10546875 C-142.04296297 -39.58680355 -54.37969749 -44.02880335 0 0 Z " fill="#000000" transform="translate(339,108.6875)"/>
<path d="M0 0 C3.20588649 2.68601301 4.8357682 4.55476015 5.3125 8.75 C4.54213114 16.76183613 -3.06416138 22.26194243 -8.5 27.5625 C-10.20023034 29.22811026 -11.89822322 30.89600818 -13.59375 32.56640625 C-14.34333984 33.29802979 -15.09292969 34.02965332 -15.86523438 34.78344727 C-18.07407165 36.99944949 -18.07407165 36.99944949 -20.06835938 39.65600586 C-22.71725771 42.87037302 -25.01847899 43.85278208 -29 45 C-32.47936296 44.42010617 -34.94253114 43.70497924 -37.875 41.75 C-39.57962056 39.09836802 -39.8787113 37.15350632 -40 34 C-38.06930013 28.34270714 -35.4293597 24.84478066 -31.1953125 20.69921875 C-30.63431854 20.13676956 -30.07332458 19.57432037 -29.49533081 18.99482727 C-28.31502105 17.81616779 -27.12979922 16.64240863 -25.93994141 15.47338867 C-24.12484717 13.68734962 -22.32925651 11.88327286 -20.53515625 10.07617188 C-19.3813188 8.92856992 -18.22640667 7.78204725 -17.0703125 6.63671875 C-16.53681183 6.10028244 -16.00331116 5.56384613 -15.4536438 5.01115417 C-10.54139907 0.22096694 -6.79901291 -2.02523789 0 0 Z " fill="#000000" transform="translate(394,71)"/>
<path d="M0 0 C2.46003511 1.63536113 4.43573672 3.6399425 6.484375 5.7578125 C7.06664856 6.33908905 7.64892212 6.9203656 8.24884033 7.51925659 C9.47277463 8.74785581 10.68936713 9.98380786 11.89892578 11.2265625 C13.74095405 13.11572259 15.60812066 14.97687546 17.48046875 16.8359375 C18.67086194 18.03748825 19.85971681 19.2405654 21.046875 20.4453125 C21.6000238 20.99663849 22.15317261 21.54796448 22.7230835 22.11599731 C26.29549145 25.81994715 28.38521756 29.0871074 30 34 C29.42809926 37.81267157 28.88327163 40.08627072 26.1875 42.875 C22.27487481 44.88720724 20.08633126 45.27158282 15.75 44.1875 C11.47081129 42.12546024 8.84997481 38.73668919 5.8125 35.171875 C1.62526346 30.33314999 -3.02983168 25.92759819 -7.59155273 21.4465332 C-8.26130127 20.78484131 -8.9310498 20.12314941 -9.62109375 19.44140625 C-10.52492798 18.55497437 -10.52492798 18.55497437 -11.44702148 17.65063477 C-13.98900392 14.94880435 -14.96671784 13.3594473 -15.3125 9.625 C-14.97820055 5.74712634 -14.46698095 3.97739081 -12 1 C-7.84300482 -1.54038594 -4.64021667 -1.11726902 0 0 Z " fill="#000000" transform="translate(122,71)"/>
<path d="M0 0 C0.93408188 -0.00004028 1.86816376 -0.00008057 2.83055115 -0.00012207 C4.79815427 0.00522197 6.76575765 0.0227568 8.7331543 0.05175781 C11.74008552 0.09366626 14.74477858 0.09281834 17.75195312 0.0859375 C19.66798427 0.09642911 21.58400391 0.10936706 23.5 0.125 C24.39594376 0.12520142 25.29188751 0.12540283 26.21498108 0.12561035 C30.99709751 0.21607284 34.32528428 0.44737067 38.18359375 3.59375 C39.8981728 6.47736023 40.19099468 8.23850538 40.12109375 11.59375 C38.87180804 15.59146428 37.52322597 17.0381362 34.18359375 19.59375 C30.79788851 20.33118574 27.48190869 20.29489686 24.02734375 20.2578125 C22.55751038 20.26498795 22.55751038 20.26498795 21.0579834 20.27230835 C18.99029939 20.27570441 16.92256147 20.26652263 14.85498047 20.24560547 C11.69376673 20.21883615 8.53610357 20.24536371 5.375 20.27734375 C3.36327343 20.2740396 1.35154906 20.26763326 -0.66015625 20.2578125 C-1.60298462 20.26793365 -2.54581299 20.27805481 -3.51721191 20.28848267 C-8.12523236 20.20636524 -10.16666902 20.0980007 -13.9074707 17.19482422 C-15.85876778 14.5360291 -16.52107004 13.34342836 -16.50390625 10.09375 C-16.52839844 9.3615625 -16.55289062 8.629375 -16.578125 7.875 C-13.98128712 0.09780347 -6.96507044 -0.12774547 0 0 Z " fill="#000000" transform="translate(415.81640625,206.40625)"/>
<path d="M0 0 C1.2366465 -0.01429802 1.2366465 -0.01429802 2.49827576 -0.02888489 C3.38064407 -0.02797348 4.26301239 -0.02706207 5.17211914 -0.02612305 C6.08683487 -0.03040817 7.0015506 -0.0346933 7.94398499 -0.03910828 C9.87638523 -0.04484503 11.80880706 -0.04535666 13.74121094 -0.04101562 C16.69316557 -0.0378569 19.64411658 -0.06131859 22.59594727 -0.08666992 C24.4755033 -0.08894315 26.35506201 -0.0896463 28.23461914 -0.08862305 C29.11496323 -0.09783279 29.99530731 -0.10704254 30.90232849 -0.11653137 C35.66914961 -0.08065398 38.9201786 0.13726752 42.76977539 3.2746582 C44.48435444 6.15826843 44.77717632 7.91941358 44.70727539 11.2746582 C43.46063023 15.26392272 42.09512051 16.71861726 38.76977539 19.2746582 C35.45629977 20.00959558 32.21567634 19.97590378 28.83227539 19.9387207 C27.87458252 19.94350433 26.91688965 19.94828796 25.93017578 19.95321655 C23.90956984 19.95661222 21.88890871 19.94743316 19.8684082 19.92651367 C16.77959429 19.8997433 13.69441409 19.92627273 10.60571289 19.95825195 C8.63955905 19.9549478 6.67340748 19.94854144 4.70727539 19.9387207 C3.7863208 19.94884186 2.86536621 19.95896301 1.91650391 19.96939087 C-2.60702704 19.886912 -4.60772575 19.75455076 -8.28881836 16.91674805 C-10.56437811 13.81990352 -11.23022461 12.11645116 -11.23022461 8.2746582 C-9.27672609 2.92824121 -9.27672609 2.92824121 -6.3813324 1.11994934 C-4.08907921 0.21919424 -2.45307566 0.01565061 0 0 Z " fill="#000000" transform="translate(61.230224609375,206.725341796875)"/>
<path d="M0 0 C2.78561348 2.03973322 4.70061099 3.65020037 5.46954346 7.11694336 C5.66234534 9.73618379 5.69292442 12.31126617 5.6640625 14.9375 C5.66884613 15.89519287 5.67362976 16.85288574 5.67855835 17.83959961 C5.68195401 19.86020555 5.67277495 21.88086668 5.65185547 23.90136719 C5.6250851 26.99018111 5.65161452 30.0753613 5.68359375 33.1640625 C5.68028959 35.13021634 5.67388324 37.09636791 5.6640625 39.0625 C5.67418365 39.98345459 5.68430481 40.90440918 5.69473267 41.85327148 C5.6122538 46.37680243 5.47989256 48.37750114 2.64208984 52.05859375 C-0.45475468 54.3341535 -2.15820705 55 -6 55 C-11.34641699 53.04650148 -11.34641699 53.04650148 -13.15470886 50.15110779 C-14.05546396 47.8588546 -14.25900759 46.22285105 -14.2746582 43.76977539 C-14.28895622 42.53312889 -14.28895622 42.53312889 -14.30354309 41.27149963 C-14.30263168 40.38913132 -14.30172028 39.506763 -14.30078125 38.59765625 C-14.30506638 37.68294052 -14.3093515 36.76822479 -14.31376648 35.82579041 C-14.31950323 33.89339017 -14.32001486 31.96096833 -14.31567383 30.02856445 C-14.3125151 27.07660982 -14.33597679 24.12565881 -14.36132812 21.17382812 C-14.36360135 19.2942721 -14.36430451 17.41471338 -14.36328125 15.53515625 C-14.372491 14.65481216 -14.38170074 13.77446808 -14.39118958 12.8674469 C-14.35531218 8.10062578 -14.13739069 4.84959679 -11 1 C-7.12254017 -1.30551666 -4.27464132 -1.33582541 0 0 Z " fill="#000000" transform="translate(257,15)"/>
</svg>
